<?xml version="1.0" encoding="utf-8"?>
<!-- Generator: Adobe Illustrator 27.3.1, SVG Export Plug-In . SVG Version: 6.00 Build 0)  -->
<svg version="1.1" id="Capa_1" xmlns="http://www.w3.org/2000/svg" xmlns:xlink="http://www.w3.org/1999/xlink" x="0px" y="0px"
	 viewBox="0 0 5952.76 8418.9" style="enable-background:new 0 0 5952.76 8418.9;" xml:space="preserve">
<style type="text/css">
	.Arqueado:_x0020_verde{fill:url(#SVGID_1_);stroke:#FFFFFF;stroke-width:0.25;stroke-miterlimit:1;}
	.st0{fill:none;}
	.st1{fill:#0068B3;}
	.st2{fill:#FFFFFF;}
</style>
<linearGradient id="SVGID_1_" gradientUnits="userSpaceOnUse" x1="0" y1="8418.9004" x2="0.7071" y2="8418.1934">
	<stop  offset="0" style="stop-color:#1DA238"/>
	<stop  offset="0.9831" style="stop-color:#24391D"/>
</linearGradient>
<path class="st0" d="M2785,4180.63"/>
<path class="st0" d="M2785,4180.63"/>
<path class="st0" d="M2785,4180.63"/>
<path class="st0" d="M2785,4180.63"/>
<polyline class="st0" points="2748.59,4237.32 2825.02,4237.32 2825.02,4160.88 "/>
<path class="st0" d="M2785,4180.63"/>
<polyline class="st0" points="2785,4241.26 2827.49,4241.26 2827.49,4180.63 "/>
<path class="st0" d="M2785,4180.63"/>
<path class="st0" d="M2785,4180.63"/>
<path class="st0" d="M2785,4180.63"/>
<path class="st0" d="M2785,4180.63"/>
<path class="st0" d="M2785,4180.63"/>
<path class="st0" d="M2785,4180.63"/>
<path class="st0" d="M2785,4180.63"/>
<path class="st0" d="M3182.42,4227.7"/>
<path class="st0" d="M3182.42,4227.7"/>
<path class="st0" d="M3182.42,4227.7"/>
<path class="st0" d="M3182.42,4227.7"/>
<path class="st0" d="M3182.42,4227.7"/>
<path class="st0" d="M3182.42,4227.7"/>
<g>
	<path class="st1" d="M3159.06,4209.84L3159.06,4209.84c-1.87,0-3.58-0.94-4.59-2.51l-1.73-2.72c-1.43,0.94-3.33,1.15-4.97,0.5
		c-2.1-0.82-3.46-2.81-3.45-5.07v-15c-0.01-2.24,1.34-4.23,3.43-5.06c2.04-0.82,4.42-0.3,5.96,1.3l9.73,10.26
		c1.52,1.6,1.92,3.86,1.05,5.89c-0.42,0.99-1.09,1.79-1.92,2.36l1.07,1.67c0.78,1.23,1.04,2.68,0.73,4.1
		c-0.32,1.43-1.17,2.64-2.39,3.42C3161.11,4209.55,3160.09,4209.84,3159.06,4209.84 M3154.17,4193.59h1.35l-4.07-4.29v4.29h1.98
		l0.43-0.47L3154.17,4193.59z"/>
	<path class="st2" d="M3161.21,4196.04c0.3-0.71,0.17-1.47-0.37-2.03c-3.24-3.42-6.49-6.83-9.73-10.25
		c-0.55-0.57-1.31-0.74-2.05-0.45c-0.73,0.29-1.18,0.95-1.18,1.74v15.01c0,0.79,0.45,1.45,1.19,1.74c0.21,0.09,0.45,0.13,0.68,0.13
		c0.53,0,1.01-0.21,1.37-0.6l2.22-2.39c1.38,2.16,2.75,4.31,4.13,6.47c0.36,0.55,0.93,0.86,1.58,0.86c0.36,0,0.7-0.1,1-0.29
		c0.43-0.27,0.71-0.68,0.82-1.17c0.11-0.49,0.02-0.99-0.25-1.41c-1.33-2.08-2.65-4.15-3.98-6.23h2.84
		C3160.26,4197.17,3160.9,4196.75,3161.21,4196.04"/>
</g>
<path class="st0" d="M3182.42,4227.7"/>
<path class="st0" d="M3182.42,4227.7"/>
<path class="st0" d="M3182.42,4227.7"/>
<path class="st0" d="M3182.42,4227.7"/>
<path class="st0" d="M3182.42,4227.7"/>
</svg>
